# File created by Blade
# Date/Time:  Tue Sep 23 19:15:59 2014
# Frame Rate: 120.000 fps
#------------------------------------------------------
:FULLY-SPECIFIED
:DEGREES
1696
root 2.361387 32.737037 -5.286501 57.999230 -50.555124 -34.445086
Spine -32.650975 -14.861429 30.653548
Head -1.590105 0.369591 -5.401713
LeftShoulder 3.616011 42.996329 20.304005
LeftArm 78.884566 22.992233 -53.372503
LeftForeArm 16.536022 -0.000000 57.844066
LeftHand 50.960294 -0.000000 -8.838742
LeftHandThumb1 -26.253704 0.000000 33.147579
RightShoulder -3.333220 -52.360131 -10.445241
RightArm 69.874947 -15.360425 50.795000
RightForeArm 39.659927 -0.000000 48.572438
RightHand 10.393058 -0.000000 15.828647
RightHandThumb1 -24.326973 -0.000000 -32.862282
LeftUpLeg -39.015276 10.036550 9.472150
LeftLeg 24.432459 -0.000000 -0.000000
LeftFoot -20.531575 13.890316 0.844538
LeftToeBase 8.120275 -0.000000 -0.000000
RightUpLeg -162.405823 -12.294687 15.434234
RightLeg 150.037113 -0.000000 -0.000000
RightFoot 45.270268 -0.254468 5.503044
RightToeBase 49.962088 -0.000000 -0.000000
1697
root 2.376172 32.702523 -5.267911 57.887902 -50.644844 -34.267915
Spine -32.516842 -14.820679 30.562394
Head -1.897103 0.291952 -5.400072
LeftShoulder 3.791894 43.009989 20.487187
LeftArm 78.921905 22.970733 -53.385579
LeftForeArm 16.512130 0.000000 57.621216
LeftHand 50.935299 0.000000 -8.530621
LeftHandThumb1 -26.253704 0.000000 33.147579
RightShoulder -2.863682 -52.356609 -10.696032
RightArm 70.030325 -15.200702 50.271394
RightForeArm 40.023557 -0.000000 48.209604
RightHand 10.412162 -0.000000 15.940587
RightHandThumb1 -24.326973 -0.000000 -32.862282
LeftUpLeg -39.328544 10.156100 9.260035
LeftLeg 24.913821 -0.000000 -0.000000
LeftFoot -20.147631 13.529022 0.923981
LeftToeBase 8.010416 -0.000000 -0.000000
RightUpLeg -162.146764 -12.020720 15.449354
RightLeg 149.894122 -0.000000 -0.000000
RightFoot 45.694554 -0.435738 5.536156
RightToeBase 50.067633 -0.000000 -0.000000
1698
root 2.389465 32.667845 -5.251335 57.808508 -50.675208 -34.134419
Spine -32.394618 -14.806426 30.539147
Head -2.167918 0.162985 -5.379587
LeftShoulder 4.046891 43.037927 20.706090
LeftArm 78.851808 22.880032 -53.547867
LeftForeArm 16.550622 -0.000000 57.496726
LeftHand 50.970849 -0.000000 -8.596486
LeftHandThumb1 -26.253704 0.000000 33.147579
RightShoulder -2.492230 -52.400614 -10.804009
RightArm 70.317928 -14.939795 49.592277
RightForeArm 40.320150 -0.000000 47.810338
RightHand 10.378058 -0.000000 16.097212
RightHandThumb1 -24.326973 -0.000000 -32.862282
LeftUpLeg -39.677929 10.379163 9.016896
LeftLeg 25.382658 -0.000000 -0.000000
LeftFoot -19.758831 13.119112 1.628130
LeftToeBase 7.514368 -0.000000 -0.000000
RightUpLeg -161.893025 -11.756364 15.523353
RightLeg 149.703279 -0.000000 -0.000000
RightFoot 46.127837 -0.494995 5.456814
RightToeBase 50.188150 -0.000000 -0.000000
1699
root 2.404840 32.631159 -5.238986 57.732115 -50.680863 -33.995728
Spine -32.283892 -14.820111 30.547000
Head -2.422619 0.061504 -5.375050
LeftShoulder 4.304841 43.091129 20.908000
LeftArm 78.814033 22.693091 -53.539649
LeftForeArm 16.987245 -0.000000 57.503084
LeftHand 50.722451 -0.000000 -7.981514
LeftHandThumb1 -26.253704 0.000000 33.147579
RightShoulder -2.010270 -52.473964 -11.015010
RightArm 70.585117 -14.661655 49.079005
RightForeArm 40.338559 -0.000000 47.431628
RightHand 10.474900 -0.000000 16.235409
RightHandThumb1 -24.326973 -0.000000 -32.862282
LeftUpLeg -40.062287 10.550492 8.799640
LeftLeg 25.914493 -0.000000 -0.000000
LeftFoot -19.589097 13.000952 2.159795
LeftToeBase 7.475735 -0.000000 -0.000000
RightUpLeg -161.645653 -11.499417 15.616303
RightLeg 149.489592 -0.000000 -0.000000
RightFoot 46.293361 -0.551513 5.428690
RightToeBase 50.199818 -0.000000 -0.000000
1700
root 2.421133 32.595331 -5.225498 57.625604 -50.614525 -33.815460
Spine -32.213869 -14.920760 30.645752
Head -2.673270 0.001391 -5.405588
LeftShoulder 4.563785 43.333615 21.092776
LeftArm 78.906837 22.343898 -53.549229
LeftForeArm 17.067941 -0.000000 57.520698
LeftHand 50.543750 0.000000 -7.851484
LeftHandThumb1 -26.253704 0.000000 33.147579
RightShoulder -1.568224 -52.404214 -11.206188
RightArm 70.842765 -14.485630 48.452928
RightForeArm 40.585613 0.000000 47.047002
RightHand 10.745168 -0.000000 16.073355
RightHandThumb1 -24.326973 -0.000000 -32.862282
LeftUpLeg -40.423307 10.513817 8.674187
LeftLeg 26.477403 -0.000000 -0.000000
LeftFoot -19.379867 12.784029 2.960220
LeftToeBase 4.945155 -0.000000 -0.000000
RightUpLeg -161.434019 -11.245678 15.797861
RightLeg 149.196604 -0.000000 -0.000000
RightFoot 46.324233 -0.816946 5.306583
RightToeBase 50.438188 -0.000000 -0.000000
1701
root 2.440848 32.560717 -5.212114 57.569659 -50.444224 -33.671823
Spine -32.175077 -15.043720 30.884454
Head -2.924586 -0.026819 -5.475801
LeftShoulder 4.750310 43.555384 21.203125
LeftArm 79.077799 21.953573 -53.496145
LeftForeArm 17.217343 -0.000000 57.489641
LeftHand 50.417060 -0.000000 -7.652038
LeftHandThumb1 -26.253704 0.000000 33.147579
RightShoulder -1.112225 -52.285402 -11.486296
RightArm 71.063435 -14.374385 47.915601
RightForeArm 40.851440 -0.000000 46.731147
RightHand 11.022359 -0.000000 15.741909
RightHandThumb1 -24.326973 -0.000000 -32.862282
LeftUpLeg -40.828267 10.420436 8.635540
LeftLeg 26.978855 -0.000000 -0.000000
LeftFoot -19.088007 12.849484 3.929224
LeftToeBase 3.653316 -0.000000 -0.000000
RightUpLeg -161.231827 -11.090319 16.080865
RightLeg 148.884556 -0.000000 -0.000000
RightFoot 46.072251 -1.065455 5.242859
RightToeBase 50.581191 -0.000000 -0.000000
1702
root 2.458325 32.525388 -5.195504 57.394906 -50.245068 -33.426247
Spine -32.157524 -15.198383 31.099448
Head -3.112854 -0.067318 -5.580858
LeftShoulder 5.020240 43.831027 21.384591
LeftArm 79.373560 21.522942 -53.380483
LeftForeArm 17.209965 -0.000000 57.394599
LeftHand 50.267246 -0.000000 -7.350537
LeftHandThumb1 -26.253704 0.000000 33.147579
RightShoulder -0.685612 -52.184379 -11.800003
RightArm 71.224873 -14.299272 47.497693
RightForeArm 41.106960 -0.000000 46.494346
RightHand 11.290951 -0.000000 15.259497
RightHandThumb1 -24.326973 -0.000000 -32.862282
LeftUpLeg -41.149865 10.151320 8.639831
LeftLeg 27.387522 -0.000000 -0.000000
LeftFoot -18.841147 13.022361 4.756345
LeftToeBase 3.497415 -0.000000 -0.000000
RightUpLeg -161.052027 -10.988664 16.372163
RightLeg 148.576544 -0.000000 -0.000000
RightFoot 45.648993 -1.504834 5.190163
RightToeBase 50.692682 -0.000000 -0.000000
1703
root 2.476725 32.492625 -5.181700 57.254628 -49.945848 -33.155609
Spine -32.223319 -15.356551 31.411867
Head -3.278089 -0.121725 -5.717835
LeftShoulder 5.258654 43.926061 21.554570
LeftArm 79.594566 21.183850 -53.291832
LeftForeArm 17.215561 -0.000000 57.225898
LeftHand 50.264367 0.000000 -7.234933
LeftHandThumb1 -26.253704 0.000000 33.147579
RightShoulder -0.382924 -52.074490 -12.105504
RightArm 71.426454 -14.280942 47.143860
RightForeArm 41.248524 -0.000000 46.225186
RightHand 11.660389 -0.000000 14.857659
RightHandThumb1 -24.326973 -0.000000 -32.862282
LeftUpLeg -41.548433 9.781629 8.744755
LeftLeg 27.809270 -0.000000 -0.000000
LeftFoot -18.607681 13.244603 5.571126
LeftToeBase 2.377046 -0.000000 -0.000000
RightUpLeg -160.957810 -10.932138 16.755643
RightLeg 148.258759 -0.000000 -0.000000
RightFoot 45.055148 -2.011988 5.186773
RightToeBase 50.852954 -0.000000 -0.000000
